<?xml version="1.0" encoding="UTF-8"?>
<svg version="1.1" xmlns="http://www.w3.org/2000/svg" width="92" height="45">
<path d="M0 0 C1.28648438 0.00966797 2.57296875 0.01933594 3.8984375 0.02929688 C5.25261057 0.05434384 6.60677725 0.07973841 7.9609375 0.10546875 C9.32290205 0.12052613 10.6848825 0.1342127 12.046875 0.14648438 C15.47690603 0.18264434 18.90622129 0.23518452 22.3359375 0.29296875 C22.9959375 0.29296875 23.6559375 0.29296875 24.3359375 0.29296875 C33.3359375 0.29296875 42.3359375 0.29296875 51.3359375 0.29296875 C50.9609375 2.71484375 50.9609375 2.71484375 50.3359375 5.29296875 C48.3359375 6.54296875 48.3359375 6.54296875 46.3359375 7.29296875 C46.0059375 7.62296875 45.6759375 7.95296875 45.3359375 8.29296875 C43.40926243 8.38045082 41.47941889 8.39994209 39.55078125 8.390625 C38.38095703 8.38740234 37.21113281 8.38417969 36.00585938 8.38085938 C34.77416016 8.37248047 33.54246094 8.36410156 32.2734375 8.35546875 C30.42008789 8.34870117 30.42008789 8.34870117 28.52929688 8.34179688 C25.46479633 8.32996483 22.40039029 8.31348048 19.3359375 8.29296875 C18.8409375 7.30296875 18.8409375 7.30296875 18.3359375 6.29296875 C17.6759375 6.95296875 17.0159375 7.61296875 16.3359375 8.29296875 C14.39648438 8.58007812 14.39648438 8.58007812 12.0546875 8.63671875 C11.21292969 8.66636719 10.37117188 8.69601563 9.50390625 8.7265625 C7.72526042 8.77083333 5.94661458 8.81510417 4.16796875 8.859375 C3.32621094 8.88902344 2.48445313 8.91867188 1.6171875 8.94921875 C0.84439453 8.96791016 0.07160156 8.98660156 -0.72460938 9.00585938 C-2.89932739 9.13094373 -2.89932739 9.13094373 -4.6640625 11.29296875 C-5.3240625 11.29296875 -5.9840625 11.29296875 -6.6640625 11.29296875 C-6.9940625 12.94296875 -7.3240625 14.59296875 -7.6640625 16.29296875 C-7.0246875 16.41671875 -6.3853125 16.54046875 -5.7265625 16.66796875 C-4.705625 16.97734375 -4.705625 16.97734375 -3.6640625 17.29296875 C-3.3340625 17.95296875 -3.0040625 18.61296875 -2.6640625 19.29296875 C3.6059375 19.62296875 9.8759375 19.95296875 16.3359375 20.29296875 C14.3559375 23.26296875 14.3559375 23.26296875 12.3359375 26.29296875 C12.0059375 26.95296875 11.6759375 27.61296875 11.3359375 28.29296875 C8.94002712 28.32009226 6.54442793 28.33986695 4.1484375 28.35546875 C3.47490234 28.36384766 2.80136719 28.37222656 2.10742188 28.38085938 C-1.60589364 28.39897311 -5.08510809 28.33328639 -8.6640625 27.29296875 C-9.3240625 26.63296875 -9.9840625 25.97296875 -10.6640625 25.29296875 C-12.0253125 26.06640625 -12.0253125 26.06640625 -13.4140625 26.85546875 C-16.6640625 28.29296875 -16.6640625 28.29296875 -19.0390625 27.98046875 C-19.5753125 27.75359375 -20.1115625 27.52671875 -20.6640625 27.29296875 C-20.4140625 23.98046875 -20.4140625 23.98046875 -19.6640625 20.29296875 C-18.67019531 19.59300781 -18.67019531 19.59300781 -17.65625 18.87890625 C-15.43466092 17.45076659 -15.43466092 17.45076659 -15.125 14.8828125 C-15.09664062 14.00753906 -15.06828125 13.13226563 -15.0390625 12.23046875 C-14.83390003 6.85679022 -12.79906201 5.30074694 -8.95556641 1.6862793 C-5.84908667 -0.20256365 -3.61889368 -0.04813015 0 0 Z " fill="#242424" transform="translate(27.6640625,10.70703125)"/>
<path d="M0 0 C1.17175781 0.04640625 2.34351563 0.0928125 3.55078125 0.140625 C5.32001953 0.19476562 5.32001953 0.19476562 7.125 0.25 C8.48044922 0.31960937 8.48044922 0.31960937 9.86328125 0.390625 C9.86328125 1.380625 9.86328125 2.370625 9.86328125 3.390625 C10.19328125 2.400625 10.52328125 1.410625 10.86328125 0.390625 C21.42328125 0.390625 31.98328125 0.390625 42.86328125 0.390625 C41.21328125 2.700625 39.56328125 5.010625 37.86328125 7.390625 C37.86328125 7.720625 37.86328125 8.050625 37.86328125 8.390625 C32.07923384 8.48942615 26.29567641 8.5620613 20.51098633 8.61035156 C18.54280035 8.63047981 16.57467426 8.65778519 14.60668945 8.69238281 C11.77930945 8.74084811 8.95271924 8.76358118 6.125 8.78125 C5.24365891 8.80189514 4.36231781 8.82254028 3.45426941 8.84381104 C-2.66903 8.84606541 -2.66903 8.84606541 -5.21557617 6.36621094 C-5.51955322 5.71426758 -5.82353027 5.06232422 -6.13671875 4.390625 C-4.39021305 1.18764703 -3.70818582 0.46179151 0 0 Z M-3.13671875 3.390625 C-2.13671875 5.390625 -2.13671875 5.390625 -2.13671875 5.390625 Z M-1.13671875 3.390625 C-0.13671875 5.390625 -0.13671875 5.390625 -0.13671875 5.390625 Z " fill="#151515" transform="translate(28.13671875,20.609375)"/>
<path d="M0 0 C1.39120471 0.00015906 2.78241534 0.00585033 4.17358398 0.01586914 C4.90463852 0.01728409 5.63569305 0.01869904 6.38890076 0.02015686 C8.73253406 0.02577131 11.07607313 0.03832617 13.41967773 0.05102539 C15.00496282 0.05603853 16.59024939 0.06060176 18.17553711 0.06469727 C22.06945383 0.07574542 25.96329979 0.09301967 29.85717773 0.11352539 C28.11499023 4.95727539 28.11499023 4.95727539 25.79467773 6.36352539 C25.15530273 6.61102539 24.51592773 6.85852539 23.85717773 7.11352539 C23.52717773 7.44352539 23.19717773 7.77352539 22.85717773 8.11352539 C20.63862509 8.20136081 18.41729277 8.22047148 16.19702148 8.21118164 C15.20032188 8.20905922 15.20032188 8.20905922 14.18348694 8.20689392 C12.05383874 8.20128057 9.92429434 8.18872593 7.79467773 8.17602539 C6.35392404 8.1710121 4.9131687 8.1664489 3.47241211 8.16235352 C-0.06603329 8.15130684 -3.60441765 8.13403331 -7.14282227 8.11352539 C-3.80740667 0.13753159 -3.80740667 0.13753159 0 0 Z " fill="#060606" transform="translate(59.142822265625,0.886474609375)"/>
<path d="M0 0 C1.74796875 0.04737305 1.74796875 0.04737305 3.53125 0.09570312 C6.39842891 0.17795826 9.26040386 0.29283948 12.125 0.4375 C12.455 1.0975 12.785 1.7575 13.125 2.4375 C8.26121717 7.30128283 8.26121717 7.30128283 4.28417969 7.77807617 C2.68171387 7.7545105 2.68171387 7.7545105 1.046875 7.73046875 C-0.11328125 7.72080078 -1.2734375 7.71113281 -2.46875 7.70117188 C-3.6753125 7.67603516 -4.881875 7.65089844 -6.125 7.625 C-7.95804688 7.60469727 -7.95804688 7.60469727 -9.828125 7.58398438 C-12.84419498 7.5486398 -15.85937487 7.4992956 -18.875 7.4375 C-14.24517567 -0.72450434 -8.75374256 -0.44954321 0 0 Z " fill="#141414" transform="translate(65.875,11.5625)"/>
<path d="M0 0 C1.17175781 0.04640625 2.34351563 0.0928125 3.55078125 0.140625 C5.32001953 0.19476562 5.32001953 0.19476562 7.125 0.25 C8.48044922 0.31960937 8.48044922 0.31960937 9.86328125 0.390625 C9.20328125 2.370625 8.54328125 4.350625 7.86328125 6.390625 C22.71328125 6.885625 22.71328125 6.885625 37.86328125 7.390625 C37.86328125 7.720625 37.86328125 8.050625 37.86328125 8.390625 C32.07923384 8.48942615 26.29567641 8.5620613 20.51098633 8.61035156 C18.54280035 8.63047981 16.57467426 8.65778519 14.60668945 8.69238281 C11.77930945 8.74084811 8.95271924 8.76358118 6.125 8.78125 C5.24365891 8.80189514 4.36231781 8.82254028 3.45426941 8.84381104 C-2.66903 8.84606541 -2.66903 8.84606541 -5.21557617 6.36621094 C-5.51955322 5.71426758 -5.82353027 5.06232422 -6.13671875 4.390625 C-4.39021305 1.18764703 -3.70818582 0.46179151 0 0 Z M-3.13671875 3.390625 C-2.13671875 5.390625 -2.13671875 5.390625 -2.13671875 5.390625 Z M-1.13671875 3.390625 C-0.13671875 5.390625 -0.13671875 5.390625 -0.13671875 5.390625 Z " fill="#343434" transform="translate(28.13671875,20.609375)"/>
<path d="M0 0 C2.55395487 -0.26711404 4.86274374 -0.34849029 7.4140625 -0.29296875 C8.50852188 -0.28660149 8.50852188 -0.28660149 9.62509155 -0.28010559 C11.95876759 -0.26329353 14.2915844 -0.22563868 16.625 -0.1875 C18.20571671 -0.17245634 19.78644693 -0.15876738 21.3671875 -0.14648438 C25.24512344 -0.11338201 29.12241598 -0.06158404 33 0 C31 2 31 2 28.28198242 2.16357422 C27.15123291 2.1276416 26.0204834 2.09170898 24.85546875 2.0546875 C23.62119141 2.03019531 22.38691406 2.00570313 21.11523438 1.98046875 C18.50823282 1.91046473 15.90143431 1.83241077 13.29492188 1.74609375 C12.05677734 1.72417969 10.81863281 1.70226562 9.54296875 1.6796875 C8.40883545 1.64601074 7.27470215 1.61233398 6.10620117 1.57763672 C2.34582673 2.0889507 0.71882858 3.42560423 -2 6 C-2 3 -2 3 0 0 Z M-3 6 C6.57 6.33 16.14 6.66 26 7 C26 7.33 26 7.66 26 8 C16.1 8 6.2 8 -4 8 C-3.67 7.34 -3.34 6.68 -3 6 Z " fill="#525252" transform="translate(56,1)"/>
<path d="M0 0 C1.17175781 0.04640625 2.34351563 0.0928125 3.55078125 0.140625 C5.32001953 0.19476562 5.32001953 0.19476562 7.125 0.25 C8.48044922 0.31960937 8.48044922 0.31960937 9.86328125 0.390625 C9.86328125 0.720625 9.86328125 1.050625 9.86328125 1.390625 C6.56328125 1.720625 3.26328125 2.050625 -0.13671875 2.390625 C-0.13671875 3.710625 -0.13671875 5.030625 -0.13671875 6.390625 C-1.45671875 6.720625 -2.77671875 7.050625 -4.13671875 7.390625 C-4.79671875 6.400625 -5.45671875 5.410625 -6.13671875 4.390625 C-4.39021305 1.18764703 -3.70818582 0.46179151 0 0 Z M-3.13671875 3.390625 C-2.13671875 5.390625 -2.13671875 5.390625 -2.13671875 5.390625 Z " fill="#636363" transform="translate(28.13671875,20.609375)"/>
<path d="M0 0 C2 1 2 1 2 1 Z " fill="#000000" transform="translate(21,22)"/>
<path d="" fill="#000000" transform="translate(0,0)"/>
<path d="" fill="#000000" transform="translate(0,0)"/>
<path d="" fill="#000000" transform="translate(0,0)"/>
<path d="" fill="#000000" transform="translate(0,0)"/>
<path d="" fill="#000000" transform="translate(0,0)"/>
<path d="" fill="#000000" transform="translate(0,0)"/>
<path d="" fill="#000000" transform="translate(0,0)"/>
<path d="" fill="#000000" transform="translate(0,0)"/>
<path d="" fill="#000000" transform="translate(0,0)"/>
<path d="" fill="#000000" transform="translate(0,0)"/>
<path d="" fill="#000000" transform="translate(0,0)"/>
<path d="" fill="#000000" transform="translate(0,0)"/>
<path d="" fill="#000000" transform="translate(0,0)"/>
<path d="" fill="#000000" transform="translate(0,0)"/>
<path d="" fill="#000000" transform="translate(0,0)"/>
<path d="" fill="#000000" transform="translate(0,0)"/>
<path d="" fill="#000000" transform="translate(0,0)"/>
<path d="" fill="#000000" transform="translate(0,0)"/>
<path d="" fill="#000000" transform="translate(0,0)"/>
<path d="" fill="#000000" transform="translate(0,0)"/>
<path d="" fill="#000000" transform="translate(0,0)"/>
<path d="" fill="#000000" transform="translate(0,0)"/>
<path d="" fill="#000000" transform="translate(0,0)"/>
<path d="" fill="#000000" transform="translate(0,0)"/>
<path d="" fill="#000000" transform="translate(0,0)"/>
<path d="" fill="#000000" transform="translate(0,0)"/>
</svg>
